# xmcd
#
# Track frame offsets: 
#        150
#        13752
#        26947
#        39574
#        51844
#        64086
#        77408
#        90055
#        101805
#        113444
#        123343
#        134344
#        145337
#        156054
#
# Disc length: 2250 seconds
#
# Revision: 0
# Processed by: cddbd v1.5.2PL0 Copyright (c) Steve Scherf et al.
# Submitted via: ExactAudioCopy v0.99pb4
#
DISCID=af08c80e
DTITLE=Eddie Dean - 1501 Miles of Heaven cd2
DYEAR=2001
DGENRE=Country
TTITLE0=Where The Silvery Colorado Winds Its Way
TTITLE1=Wake Me In The Morning By The Swanee River
TTITLE2=Careless Hands
TTITLE3=Gravedigger's Lament
TTITLE4=The Low Road's Good Enough For Me
TTITLE5=A Million Years Ago
TTITLE6=Don't Tell Me Stories
TTITLE7=One Has My Name, The Other Has My Heart
TTITLE8=Rose Of Santa Fe
TTITLE9=I Wonder Why You Said Goodbye
TTITLE10=Promise To Be True While I'm Away
TTITLE11=Walking The Floor Over You
TTITLE12=Someday You'll Know I Did Wrong
TTITLE13=Whoopie Ti Yi Yo
EXTD=
EXTT0=
EXTT1=
EXTT2=
EXTT3=
EXTT4=
EXTT5=
EXTT6=
EXTT7=
EXTT8=
EXTT9=
EXTT10=
EXTT11=
EXTT12=
EXTT13=
PLAYORDER=
